<svg width="20" height="19" fill="none" xmlns="http://www.w3.org/2000/svg">
  <path d="M18.552.997a2.23 2.23 0 0 0-.7.167h-.002c-.214.085-1.23.512-2.775 1.16L9.538 4.656C5.565 6.33 1.66 7.976 1.66 7.976l.047-.018s-.27.088-.55.28c-.175.111-.324.256-.44.426a1.246 1.246 0 0 0-.208.833c.067.541.418.866.67 1.045.256.182.498.266.498.266h.006l3.663 1.234c.164.527 1.116 3.656 1.345 4.377.135.43.266.7.43.905.08.105.172.193.284.264.058.034.12.06.185.08l-.038-.01c.012.003.02.012.029.015.03.008.05.011.088.017.58.176 1.046-.184 1.046-.184l.026-.021 2.162-1.969 3.624 2.78.083.036c.755.331 1.52.147 1.924-.179.408-.328.566-.747.566-.747l.026-.067 2.8-14.347c.08-.354.1-.686.013-1.007-.091-.326-.3-.606-.586-.786a1.404 1.404 0 0 0-.8-.202Zm-.075 1.537c-.003.048.006.042-.015.133v.008l-2.774 14.198c-.013.02-.033.064-.088.109-.059.046-.105.075-.349-.021l-4.432-3.399-2.678 2.44.563-3.592 7.241-6.75c.299-.277.2-.336.2-.336.02-.34-.451-.1-.451-.1L6.56 10.883l-.002-.015L2.18 9.393V9.39l-.01-.002a.203.203 0 0 0 .022-.01l.024-.011.023-.008 7.881-3.32c1.989-.838 3.993-1.681 5.534-2.332.914-.385 1.83-.768 2.745-1.148.062-.024.033-.024.077-.024Z" fill="#F3C653" fill-opacity=".7"/>
</svg>
